<svg xmlns="http://www.w3.org/2000/svg" width="660" height="287" viewBox="0 0 660 287" version="1.1"><path d="M 72.497 84.665 C 75.527 93.374, 84.247 118.500, 91.874 140.500 L 105.743 180.500 94.621 181.051 L 83.500 181.601 95.083 181.801 C 106.685 182, 108.707 181.630, 107.146 179.592 C 106.687 178.991, 105.703 176.250, 104.960 173.500 C 104.218 170.750, 103.026 167.375, 102.311 166 C 101.597 164.625, 101.010 162.893, 101.006 162.151 C 101.003 161.409, 100.350 159.384, 99.556 157.651 C 98.761 155.918, 97.357 151.800, 96.435 148.500 C 95.513 145.200, 94.433 142.050, 94.034 141.500 C 93.636 140.950, 92.721 138.250, 92 135.500 C 91.279 132.750, 90.352 130.050, 89.939 129.500 C 89.527 128.950, 88.417 125.800, 87.474 122.500 C 86.530 119.200, 85.396 116.044, 84.953 115.487 C 84.510 114.929, 83.592 112.229, 82.912 109.487 C 82.232 106.744, 81.379 104.275, 81.015 104 C 80.652 103.725, 79.552 100.575, 78.570 97 C 77.588 93.425, 76.417 90.044, 75.966 89.487 C 75.516 88.929, 74.592 86.229, 73.912 83.487 C 73.232 80.744, 72.364 78.275, 71.982 78 C 71.601 77.725, 70.877 75.735, 70.375 73.577 C 69.872 71.419, 68.905 69.468, 68.225 69.242 C 67.515 69.005, 69.332 75.565, 72.497 84.665 M 181 105.974 C 181 130.083, 181.393 144.676, 182.121 147.564 C 182.819 150.337, 184.740 153.614, 187.218 156.257 C 189.483 158.675, 190.114 159.113, 188.683 157.275 C 187.302 155.502, 185.701 152.577, 185.126 150.775 C 184.494 148.798, 183.965 132.074, 183.790 108.583 C 183.566 78.547, 183.215 69.571, 182.250 69.250 C 181.265 68.922, 181 76.706, 181 105.974 M 250.798 110.750 C 250.501 151.536, 250.441 152.630, 248.214 158.147 C 242.224 172.981, 230.274 180.099, 208.323 181.910 C 199.942 182.601, 199.407 182.741, 204.678 182.860 C 231.118 183.459, 247.291 173.237, 251.922 153 C 253.254 147.175, 253.375 69, 252.051 69 C 251.472 69, 250.983 85.284, 250.798 110.750 M 521.497 84.665 C 524.527 93.374, 533.247 118.500, 540.874 140.500 L 554.743 180.500 543.621 181.051 L 532.500 181.601 544.361 181.801 L 556.223 182 555.528 178.250 C 555.147 176.188, 554.225 173.150, 553.480 171.500 C 552.736 169.850, 551.557 166.475, 550.862 164 C 550.166 161.525, 549.329 159.275, 549.001 159 C 548.673 158.725, 547.665 156.025, 546.761 153 C 544.360 144.967, 540.954 134.941, 539.458 131.500 C 538.741 129.850, 537.832 127.150, 537.439 125.500 C 537.046 123.850, 536.415 122.050, 536.038 121.500 C 535.660 120.950, 534.501 117.575, 533.462 114 C 532.424 110.425, 530.997 106.375, 530.293 105 C 529.589 103.625, 529.007 101.825, 529 101 C 528.993 100.175, 528.313 98.207, 527.489 96.627 C 526.665 95.047, 525.278 90.997, 524.406 87.627 C 523.534 84.257, 522.455 81.050, 522.007 80.500 C 521.559 79.950, 520.546 77.274, 519.757 74.554 C 518.968 71.833, 517.797 69.432, 517.155 69.218 C 516.514 69.005, 518.468 75.955, 521.497 84.665 M 602.500 73.079 C 597.013 74.683, 596 78.192, 596 95.581 C 596 104.061, 595.663 111.008, 595.250 111.017 C 594.837 111.027, 587.422 111.139, 578.771 111.267 C 563.241 111.497, 563.010 111.533, 560.402 114.142 C 556.699 117.847, 556.745 124.523, 560.496 127.750 C 562.979 129.886, 563.944 130, 579.556 130 L 596 130 596 146.394 L 596 162.788 598.901 165.894 C 601.088 168.235, 602.672 169, 605.336 169 C 614.983 169, 616.363 165.874, 615.858 145.159 L 615.500 130.500 632.649 130 C 647.507 129.567, 650.070 129.252, 651.842 127.646 C 654.535 125.205, 655.476 120.565, 654.002 117.004 C 651.931 112.004, 648.039 111, 630.731 111 L 615.264 111 615.382 95.175 C 615.528 75.632, 615.009 74.230, 607 72.521 C 606.175 72.345, 604.150 72.596, 602.500 73.079 M 390.325 77.272 C 392.971 79.918, 395.339 83.548, 396.344 86.496 C 398.268 92.144, 398.507 102.575, 396.839 108.142 C 395.183 113.669, 389.824 119.450, 383.474 122.556 C 377.373 125.541, 375.939 127.759, 381.654 125.371 C 389.955 121.903, 397.352 114.993, 398.960 109.204 C 400.656 103.098, 400.206 91.050, 398.110 86.435 C 396.071 81.946, 390.770 75.483, 387.844 73.916 C 386.809 73.362, 387.925 74.873, 390.325 77.272 M 340.015 101.250 C 340.026 111.719, 340.343 116.030, 341.027 115 C 341.577 114.172, 341.970 107.680, 341.905 100.500 L 341.788 87.500 355.365 87.500 C 362.832 87.500, 368.167 87.194, 367.221 86.820 C 366.274 86.446, 359.762 86.109, 352.750 86.070 L 340 86 340.015 101.250 M 50.524 93.250 C 44.289 112.120, 37 134.789, 37 135.312 C 37 135.690, 37.450 136, 38 136 C 38.550 136, 39.003 135.438, 39.006 134.750 C 39.010 134.063, 39.592 132.375, 40.300 131 C 41.009 129.625, 42.203 125.912, 42.954 122.750 C 43.705 119.588, 44.626 117, 45.001 117 C 45.375 117, 46.211 114.635, 46.858 111.744 C 47.505 108.853, 48.638 105.324, 49.376 103.901 C 50.115 102.478, 51.034 99.631, 51.420 97.573 C 51.911 94.959, 52.540 93.993, 53.510 94.365 C 54.418 94.714, 54.706 94.396, 54.342 93.449 C 53.660 91.672, 51.090 91.538, 50.524 93.250 M 499.524 93.250 C 493.289 112.120, 486 134.789, 486 135.312 C 486 135.690, 486.433 136, 486.961 136 C 487.490 136, 488.412 134.088, 489.009 131.750 C 489.606 129.412, 490.694 126.150, 491.425 124.500 C 492.157 122.850, 494.195 117, 495.954 111.500 C 497.713 106, 499.568 100.719, 500.076 99.764 C 500.584 98.809, 501 97.121, 501 96.014 C 501 94.906, 501.450 94, 502 94 C 502.550 94, 503 93.550, 503 93 C 503 91.554, 500.014 91.768, 499.524 93.250 M 384.136 131.620 C 388.004 135.847, 389.487 139.230, 397.063 161.110 L 403.926 180.935 392.713 181.254 L 381.500 181.572 393.250 181.786 C 402.556 181.956, 405 181.719, 405 180.649 C 405 179.173, 403.350 173.670, 401.956 170.500 C 401.473 169.400, 400.330 165.800, 399.418 162.500 C 398.505 159.200, 397.425 156.050, 397.017 155.500 C 396.609 154.950, 395.956 153.166, 395.565 151.535 C 395.174 149.904, 393.987 146.666, 392.927 144.340 C 391.867 142.013, 391 139.772, 391 139.359 C 391 137.821, 385.571 130.842, 383.573 129.811 C 381.851 128.922, 381.946 129.228, 384.136 131.620 M 340 157.467 L 340 180.934 328.750 181.270 L 317.500 181.606 329.500 181.553 L 341.500 181.500 341.769 158.154 L 342.037 134.808 351.437 135.154 C 359.509 135.451, 361.308 135.845, 364.169 137.941 C 366.445 139.609, 367.025 139.797, 366 138.536 C 363.378 135.309, 358.480 134, 349.032 134 L 340 134 340 157.467 M 124.273 151.208 C 123.700 151.918, 122.692 158.125, 122.033 165 C 121.375 171.875, 120.457 178.400, 119.995 179.500 C 119.532 180.600, 118.602 186.450, 117.928 192.500 C 117.254 198.550, 116.332 205.750, 115.879 208.500 C 115.426 211.250, 114.256 219.125, 113.278 226 C 112.300 232.875, 111.081 239.152, 110.569 239.948 C 109.601 241.452, 109.081 239.516, 105.479 221 C 104.569 216.325, 103.446 211.600, 102.982 210.500 C 102.518 209.400, 101.634 204.675, 101.019 200 C 99.595 189.182, 98.282 184.955, 96.552 185.618 C 95.694 185.948, 94.989 188.851, 94.561 193.814 C 94.197 198.041, 93.518 202.625, 93.052 204 C 92.585 205.375, 91.642 209.875, 90.955 214 C 89.398 223.350, 87.154 232.214, 87.066 229.357 C 86.974 226.368, 85.385 226, 72.573 226 C 62.580 226, 61.106 225.774, 59.500 224 C 56.736 220.946, 50.711 221.281, 48.073 224.635 C 45.342 228.107, 45.458 230.203, 48.589 233.923 C 51.819 237.762, 55.704 237.961, 59.818 234.500 C 62.476 232.263, 63.682 232, 71.272 232 C 80.432 232, 81.386 232.468, 82.503 237.506 C 82.868 239.153, 83.441 241.175, 83.775 242 C 84.110 242.825, 84.860 245.970, 85.442 248.988 C 86.184 252.838, 87.012 254.575, 88.214 254.805 C 89.352 255.023, 90.072 254.354, 90.355 252.816 C 90.590 251.542, 91.532 246.900, 92.448 242.500 C 93.364 238.100, 94.543 231.833, 95.067 228.573 C 97.033 216.350, 97.897 218.908, 103.485 253.500 C 106.121 269.813, 109.311 285, 110.103 285 C 111.765 285, 112.511 282.012, 114.226 268.500 C 116.633 249.533, 120.361 225.725, 121.116 224.500 C 121.456 223.950, 122.322 218.438, 123.043 212.250 C 123.763 206.063, 124.683 201, 125.086 201 C 125.489 201, 126.287 204.037, 126.858 207.750 C 127.430 211.463, 128.164 216.075, 128.489 218 C 128.814 219.925, 129.720 226.418, 130.502 232.430 C 131.284 238.441, 132.152 243.953, 132.431 244.680 C 132.847 245.765, 158.727 246, 277.887 246 C 357.609 246, 423.548 245.727, 424.418 245.393 C 426.464 244.608, 426.464 241.392, 424.418 240.607 C 423.548 240.273, 359.225 240, 281.477 240 C 169.481 240, 139.953 239.740, 139.322 238.750 C 138.885 238.063, 137.499 230.075, 136.242 221 C 134.986 211.925, 133.514 201.350, 132.971 197.500 C 132.428 193.650, 131.545 187.125, 131.010 183 C 130.475 178.875, 129.337 170.106, 128.481 163.513 C 126.890 151.244, 126.102 148.940, 124.273 151.208 M 26.120 167.467 L 21.905 180.933 11.202 181.271 L 0.500 181.609 12.457 181.555 L 24.414 181.500 25.229 177.500 C 25.677 175.300, 26.641 172.150, 27.371 170.500 C 28.101 168.850, 29.290 164.902, 30.014 161.728 C 31.019 157.319, 31.823 155.832, 33.415 155.434 C 34.562 155.147, 44.388 155.044, 55.251 155.206 C 66.114 155.368, 75.002 155.162, 75.001 154.750 C 75 154.338, 64.950 154, 52.668 154 L 30.335 154 26.120 167.467 M 475.120 167.467 L 470.905 180.933 460.202 181.271 L 449.500 181.609 461.475 181.555 L 473.450 181.500 475.258 174.500 C 476.252 170.650, 477.726 166.082, 478.533 164.349 C 479.340 162.616, 480.007 160.366, 480.015 159.349 C 480.050 155.203, 480.810 155.052, 503.046 154.750 L 524.500 154.458 501.918 154.229 L 479.335 154 475.120 167.467 M 176.849 175.967 C 179.740 178.446, 191.089 182.053, 195.355 181.850 L 198.500 181.700 195.500 181.302 C 190.366 180.622, 181.658 177.933, 178 175.899 L 174.500 173.954 176.849 175.967 M 434.907 220.323 C 431.501 222.119, 430.205 223.534, 429.201 226.552 C 427.519 231.607, 428.451 236.917, 431.827 241.522 C 435.258 246.201, 446.331 257.516, 449.533 259.614 C 451.813 261.107, 452.196 261.101, 454.583 259.537 C 458.381 257.049, 470.842 244.074, 471.537 241.884 C 471.866 240.848, 472.537 240, 473.029 240 C 474.459 240, 476.220 231.984, 475.561 228.472 C 474.763 224.220, 471.333 220.507, 466.894 219.091 C 462.295 217.623, 458.447 218.942, 454.889 223.206 L 452.278 226.335 449.889 223.537 C 447.738 221.018, 442.451 218, 440.189 218 C 439.708 218, 437.331 219.045, 434.907 220.323 M 53 229 C 53 230.111, 53.667 231, 54.500 231 C 55.333 231, 56 230.111, 56 229 C 56 227.889, 55.333 227, 54.500 227 C 53.667 227, 53 227.889, 53 229" stroke="none" fill="#e54e53" fill-rule="evenodd"/><path d="M 39.836 68.744 C 38.761 68.983, 37.742 70.951, 36.955 74.307 C 36.286 77.163, 35.406 79.950, 34.999 80.500 C 34.593 81.050, 33.713 83.300, 33.044 85.500 C 32.375 87.700, 31.225 90.850, 30.488 92.500 C 29.752 94.150, 28.593 97.750, 27.913 100.500 C 27.232 103.250, 26.378 105.725, 26.014 106 C 25.650 106.275, 24.753 108.750, 24.021 111.500 C 23.289 114.250, 22.352 116.950, 21.939 117.500 C 21.527 118.050, 20.436 121.200, 19.516 124.500 C 18.596 127.800, 17.203 131.918, 16.422 133.651 C 15.640 135.384, 14.997 137.409, 14.994 138.151 C 14.990 138.893, 14.335 140.752, 13.537 142.282 C 12.739 143.812, 11.321 147.862, 10.386 151.282 C 9.452 154.702, 8.354 157.950, 7.946 158.500 C 7.538 159.050, 6.529 161.750, 5.703 164.500 C 4.878 167.250, 3.257 171.675, 2.101 174.333 C 0.945 176.991, 0 179.579, 0 180.083 C 0 180.587, 4.924 181, 10.942 181 L 21.884 181 26.109 167.500 L 30.335 154 52.488 154 L 74.641 154 78.890 167.500 L 83.140 181 94.536 181 L 105.933 181 102.526 171.213 C 100.652 165.830, 92.126 141.192, 83.580 116.463 C 75.033 91.733, 67.680 70.881, 67.240 70.125 C 66.639 69.092, 63.340 68.704, 53.970 68.563 C 47.112 68.459, 40.751 68.541, 39.836 68.744 M 160.667 68.667 C 159.634 69.699, 159.895 137.458, 160.968 146.787 C 163.378 167.750, 174.303 178.257, 196.822 181.270 C 206.929 182.622, 219.538 181.291, 228.493 177.926 C 236.550 174.899, 244.761 166.755, 248.087 158.493 L 250.500 152.500 250.500 110.565 L 250.500 68.630 241.337 68.452 C 236.297 68.355, 231.709 68.562, 231.141 68.913 C 230.466 69.330, 230.002 83.480, 229.804 109.691 L 229.500 149.831 226.500 154.089 C 222.041 160.418, 216.410 163.001, 207.093 162.994 C 202.917 162.991, 197.700 162.494, 195.500 161.890 C 189.993 160.377, 183.648 153.631, 182.155 147.701 C 181.384 144.638, 181 130.642, 181 105.557 L 181 68 171.167 68 C 165.758 68, 161.033 68.300, 160.667 68.667 M 319.250 68.679 C 318.271 69.061, 318 81.277, 318 125.083 L 318 181 329 181 L 340 181 340 157.500 L 340 134 349.250 134.002 C 360.311 134.003, 364.442 135.652, 367.600 141.328 C 368.772 143.433, 372.376 153.221, 375.608 163.078 L 381.486 181 392.718 181 L 403.949 181 397.087 161.181 C 388.899 137.531, 387.242 134.093, 382.006 129.885 C 379.803 128.114, 378 126.343, 378 125.950 C 378 125.557, 380.463 124.029, 383.474 122.556 C 389.824 119.450, 395.183 113.669, 396.839 108.142 C 398.507 102.575, 398.268 92.144, 396.344 86.496 C 394.118 79.963, 387.867 73.867, 380.407 70.956 C 374.823 68.776, 373.024 68.637, 347.500 68.421 C 332.650 68.295, 319.938 68.411, 319.250 68.679 M 489 68.699 C 488.119 68.906, 486.497 72.241, 485.070 76.776 C 483.734 81.024, 482.066 85.850, 481.364 87.500 C 480.662 89.150, 478.467 95.450, 476.488 101.500 C 474.508 107.550, 472.276 113.850, 471.527 115.500 C 470.778 117.150, 469.852 120.192, 469.469 122.261 C 469.087 124.330, 468.426 126.237, 468.001 126.499 C 467.576 126.762, 466.417 130.020, 465.426 133.738 C 464.434 137.457, 463.370 140.725, 463.061 141 C 462.753 141.275, 460.771 146.675, 458.659 153 C 456.546 159.325, 454.440 165.400, 453.978 166.500 C 453.517 167.600, 452.604 170.300, 451.949 172.500 C 451.294 174.700, 450.363 176.928, 449.879 177.450 C 449.396 177.973, 449 178.985, 449 179.700 C 449 180.687, 451.631 181, 459.942 181 L 470.884 181 475.109 167.500 L 479.335 154 501.454 154 L 523.572 154 527.854 167.500 L 532.135 181 543.526 181 L 554.916 181 548.584 162.750 C 545.102 152.713, 536.498 127.850, 529.465 107.500 C 522.432 87.150, 516.297 70, 515.832 69.389 C 515.047 68.359, 492.867 67.788, 489 68.699 M 340 101 L 340 116 353.599 116 C 373.203 116, 377 113.563, 377 100.982 C 377 89.218, 371.873 86.055, 352.750 86.022 L 340 86 340 101 M 50.524 93.250 C 41.207 121.445, 36.948 135.281, 37.434 135.768 C 37.770 136.103, 44.784 136.511, 53.022 136.674 C 64.535 136.901, 68 136.679, 68 135.713 C 68 135.022, 64.854 125.016, 61.008 113.478 C 57.162 101.940, 54.012 92.388, 54.008 92.250 C 53.979 91.345, 50.858 92.241, 50.524 93.250 M 499.524 93.250 C 490.193 121.489, 485.949 135.282, 486.439 135.773 C 486.778 136.111, 493.567 136.564, 501.526 136.779 C 513.104 137.092, 516.102 136.897, 516.521 135.805 C 516.810 135.054, 513.885 125.015, 510.023 113.496 C 506.160 101.978, 503 92.429, 503 92.277 C 503 91.347, 499.863 92.226, 499.524 93.250" stroke="none" fill="#052444" fill-rule="evenodd"/></svg>